<svg xmlns="http://www.w3.org/2000/svg" viewBox="0 0 360 280" role="img" aria-label="Pragathi Power Solutions">
  <defs>
    <linearGradient id="panelGrad" x1="0%" y1="0%" x2="100%" y2="100%">
      <stop offset="0%" stop-color="#3B82F6"/>
      <stop offset="55%" stop-color="#3651C9"/>
      <stop offset="100%" stop-color="#5B2FB6"/>
    </linearGradient>
    <linearGradient id="roofGrad" x1="0%" y1="0%" x2="100%" y2="0%">
      <stop offset="0%" stop-color="#3B82F6"/>
      <stop offset="50%" stop-color="#5B2FB6"/>
      <stop offset="100%" stop-color="#3B82F6"/>
    </linearGradient>
    <radialGradient id="sunGrad" cx="40%" cy="35%" r="65%">
      <stop offset="0%" stop-color="#FFD940"/>
      <stop offset="55%" stop-color="#FF9D26"/>
      <stop offset="100%" stop-color="#E94E1B"/>
    </radialGradient>
  </defs>

  <g transform="translate(0,40)">
    <g transform="matrix(1 -0.45 0 1 14 70)" stroke="#ffffff" stroke-width="2.5">
      <rect x="0"  y="0"  width="40" height="32" fill="url(#panelGrad)"/>
      <rect x="40" y="0"  width="40" height="32" fill="url(#panelGrad)"/>
      <rect x="80" y="0"  width="40" height="32" fill="url(#panelGrad)"/>
      <rect x="0"  y="32" width="40" height="32" fill="url(#panelGrad)" opacity="0.92"/>
      <rect x="40" y="32" width="40" height="32" fill="url(#panelGrad)" opacity="0.92"/>
      <rect x="80" y="32" width="40" height="32" fill="url(#panelGrad)" opacity="0.92"/>
    </g>

    <g transform="translate(238 70)">
      <g stroke="#FF8A1B" stroke-width="6" stroke-linecap="round">
        <line x1="0" y1="-58" x2="0" y2="-78"/>
        <line x1="40" y1="-40" x2="55" y2="-55"/>
        <line x1="58" y1="0"  x2="78" y2="0"/>
        <line x1="40" y1="40" x2="55" y2="55"/>
        <line x1="-22" y1="-50" x2="-30" y2="-66"/>
        <line x1="-50" y1="-25" x2="-66" y2="-32"/>
      </g>
      <circle cx="0" cy="0" r="42" fill="url(#sunGrad)"/>
    </g>

    <path d="M 70 200 L 188 28 L 306 200" fill="none" stroke="url(#roofGrad)" stroke-width="14" stroke-linejoin="round" stroke-linecap="round"/>

    <text x="188" y="155" text-anchor="middle" font-family="'Poppins', 'Helvetica Neue', Arial, sans-serif" font-weight="900" font-size="78" font-style="italic" fill="#E94E1B">PPS</text>
    <text x="188" y="195" text-anchor="middle" font-family="'Poppins', 'Helvetica Neue', Arial, sans-serif" font-weight="800" font-size="22" fill="#1F3A93" letter-spacing="6">SOLAR</text>
  </g>
</svg>
